<?xml version="1.0" encoding="utf-8"?>
<!-- Generator: Adobe Illustrator 16.0.0, SVG Export Plug-In . SVG Version: 6.00 Build 0)  -->
<!DOCTYPE svg PUBLIC "-//W3C//DTD SVG 1.1//EN" "http://www.w3.org/Graphics/SVG/1.1/DTD/svg11.dtd">
<svg version="1.1" id="Layer_1" xmlns="http://www.w3.org/2000/svg" xmlns:xlink="http://www.w3.org/1999/xlink" x="0px" y="0px"
	 width="350px" height="300px" viewBox="0 0 350 300" enable-background="new 0 0 350 300" xml:space="preserve">
<g>
	<g>
		<path fill="#FFFFFF" d="M90.917,226.011c-1.44-3.329-3.51-6.3-5.94-8.819c-5.309-5.49-12.689-8.82-20.789-8.82
			s-15.479,3.33-20.789,8.82c-5.309,5.49-8.639,12.959-8.639,21.148c0,8.28,3.33,15.75,8.639,21.149
			c5.311,5.489,12.689,8.909,20.789,8.909s15.48-3.42,20.789-8.909c2.431-2.52,4.5-5.399,5.94-8.729h1.53
			c-1.53,3.689-3.78,7.02-6.48,9.81c-5.579,5.76-13.229,9.27-21.779,9.27c-8.549,0-16.199-3.51-21.778-9.27
			c-5.489-5.67-9-13.499-9-22.229c0-8.639,3.511-16.469,9-22.139c5.579-5.76,13.229-9.27,21.778-9.27c8.551,0,16.2,3.51,21.779,9.27
			c2.7,2.79,4.95,6.119,6.48,9.81H90.917z"/>
		<path fill="#FFFFFF" d="M121.519,208.102h-13.409v60.297h13.409v1.351c-9.359,0-18.81,0-28.169,0v-1.351h13.41v-60.297H93.35
			v-1.26c9.359,0,18.81,0,28.169,0V208.102z"/>
		<path fill="#FFFFFF" d="M129.168,269.749h-1.35v-62.277v-0.72h0.721h21.059c25.199,0,25.199,36.809,0,36.809h-10.17l28.979,26.188
			h-2.07l-28.979-26.188v-1.351h12.239c23.399,0,23.399-34.019,0-34.019h-20.43V269.749z"/>
		<path fill="#FFFFFF" d="M176.777,269.749h-1.35v-62.277v-0.72h0.72h21.06c25.199,0,25.199,36.809,0,36.809h-10.17l28.979,26.188
			h-2.07l-28.979-26.188v-1.351h12.24c23.398,0,23.398-34.019,0-34.019h-20.43V269.749z"/>
		<path fill="#FFFFFF" d="M222.947,252.65v-45.809h1.439v45.898c0,10.889,10.98,16.289,20.609,16.289s20.609-5.4,20.609-16.379
			v-45.809h1.439v45.898c0,11.609-11.699,17.729-22.049,17.729C234.557,270.469,222.947,264.35,222.947,252.65z"/>
		<path fill="#FFFFFF" d="M313.125,219.98c-0.541-2.609-1.619-4.859-3.42-6.84c-3.869-4.139-10.08-5.85-15.75-5.76
			c-5.939,0.091-12.689,2.25-16.469,7.2c-2.25,2.79-3.061,6.12-2.79,9.63c1.62,22.049,36.899,4.77,41.218,24.929
			c2.881,13.319-9.719,21.239-21.688,21.239c-9.18,0-20.34-5.22-21.42-15.389l-0.09-0.631l1.439-0.18l0.09,0.63
			c0.99,9.45,11.52,14.22,20.07,14.22c10.979,0,22.857-7.109,20.248-19.619c-4.049-18.72-39.598-1.62-41.218-25.109
			c-0.36-3.779,0.63-7.47,2.97-10.529c9.18-11.88,35.098-10.35,38.158,5.939l0.09,0.721l-1.35,0.27L313.125,219.98z"/>
	</g>
	<g id="logo">
		<path fill="#FFFFFF" d="M198.583,90.75c0,0-86.333,171.5-24.833-62"/>
		<path fill="#D8D8D8" d="M196.396,85.244c0,0,9.229,20.631-72.979,71.506h9.334C132.75,156.75,233.1,151.243,196.396,85.244z"/>
	</g>
</g>
<g>
</g>
<g>
</g>
<g>
</g>
<g>
</g>
<g>
</g>
<g>
</g>
<g>
</g>
<g>
</g>
<g>
</g>
<g>
</g>
<g>
</g>
<g>
</g>
<g>
</g>
<g>
</g>
<g>
</g>
</svg>
